<?xml version="1.0" encoding="UTF-8" standalone="no"?>
<!-- Created with Inkscape (http://www.inkscape.org/) -->

<svg
   xmlns:dc="http://purl.org/dc/elements/1.1/"
   xmlns:cc="http://creativecommons.org/ns#"
   xmlns:rdf="http://www.w3.org/1999/02/22-rdf-syntax-ns#"
   xmlns:svg="http://www.w3.org/2000/svg"
   xmlns="http://www.w3.org/2000/svg"
   xmlns:xlink="http://www.w3.org/1999/xlink"
   version="1.1"
   width="167.09647"
   height="60"
   id="svg14001">
  <defs
     id="defs14003">
    <radialGradient
       cx="24.381376"
       cy="-30.426441"
       r="72.280586"
       fx="24.381376"
       fy="-30.426441"
       id="radialGradient16147"
       xlink:href="#radialGradient-1"
       gradientUnits="userSpaceOnUse"
       gradientTransform="scale(2.2337959,0.44766848)" />
    <radialGradient
       cx="24.381376"
       cy="-30.426441"
       r="72.280586"
       fx="24.381376"
       fy="-30.426441"
       id="radialGradient-1"
       gradientUnits="userSpaceOnUse"
       gradientTransform="scale(2.2337959,0.44766848)">
      <stop
         id="stop12987"
         style="stop-color:#ffffff;stop-opacity:1"
         offset="0" />
      <stop
         id="stop12989"
         style="stop-color:#ff3264;stop-opacity:1"
         offset="1" />
    </radialGradient>
    <radialGradient
       cx="29.521177"
       cy="-40.984398"
       r="92.188622"
       fx="29.521177"
       fy="-40.984398"
       id="radialGradient16149"
       xlink:href="#radialGradient-3"
       gradientUnits="userSpaceOnUse"
       gradientTransform="scale(2.0231481,0.4942792)" />
    <radialGradient
       cx="29.521177"
       cy="-40.984398"
       r="92.188622"
       fx="29.521177"
       fy="-40.984398"
       id="radialGradient-3"
       gradientUnits="userSpaceOnUse"
       gradientTransform="scale(2.0231481,0.4942792)">
      <stop
         id="stop13005"
         style="stop-color:#ffffff;stop-opacity:1"
         offset="0" />
      <stop
         id="stop13007"
         style="stop-color:#000000;stop-opacity:1"
         offset="1" />
    </radialGradient>
  </defs>
  <metadata
     id="metadata14006">
    <rdf:RDF>
      <cc:Work
         rdf:about="">
        <dc:format>image/svg+xml</dc:format>
        <dc:type
           rdf:resource="http://purl.org/dc/dcmitype/StillImage" />
        <dc:title></dc:title>
      </cc:Work>
    </rdf:RDF>
  </metadata>
  <g
     transform="matrix(0.98898632,0,0,0.98898632,-287.32164,-496.49892)"
     id="layer1">
    <g
       transform="matrix(1.8117655,0,0,1.8117655,286.93917,501.78951)"
       id="Page-1"
       style="fill:none;stroke:none">
      <g
         transform="translate(2,0)"
         id="Path-32-+-cahoots-9">
        <path
           d="m 30.829874,3.3011785 c 0.806875,0 2.023587,0.6660817 3.551679,1.990863 0.807518,0.7000788 1.660138,1.5395542 2.719247,2.6561254 0.366541,0.3864283 2.129472,2.2830251 2.590007,2.7629491 0.974207,1.015224 1.686843,1.68069 2.332357,2.136634 1.833471,1.295031 3.717954,0.987787 6.406062,-0.328834 0.2563,-0.125535 0.49584,-0.247018 0.881911,-0.445717 1.858574,-0.95655 2.558661,-1.239071 3.136711,-1.226818 0.670605,0.01421 1.078206,0.166445 1.8259,0.627869 0.07673,0.04735 0.379331,0.236893 0.451802,0.281762 1.532289,0.948684 2.797436,1.377794 4.819701,1.377794 1.185066,0 2.477962,-0.379634 4.14353,-1.119579 0.625307,-0.277799 1.28833,-0.59866 2.168615,-1.043374 0.235859,-0.119154 1.804667,-0.920149 2.274701,-1.1560456 4.038133,-2.0266239 6.751276,-3.066664 9.386313,-2.9873982 4.95312,0.1489973 7.612617,1.1219204 8.834637,6.2311978 l 3.050294,-0.744258 C 87.841034,5.782325 83.883981,3.6574042 77.620722,3.6574086 74.214316,3.657411 71.172574,4.7496754 66.735719,6.9764068 61.0086,9.8506845 60.752827,9.9643141 59.545251,9.9643141 c -1.382218,0 -2.105098,-0.2451844 -3.179724,-0.9105165 C 56.303054,9.0151185 55.997872,8.8239611 55.90987,8.7696529 54.730599,8.0418894 53.829872,7.7054855 52.513689,7.6775867 51.18602,7.6494444 50.300073,8.0069692 47.886419,9.2492022 47.517522,9.4390621 47.292928,9.5529653 47.059988,9.6670581 45.317694,10.520424 44.412753,10.667965 43.821532,10.250369 43.38501,9.9420418 42.787205,9.3838059 41.944144,8.5052506 41.505041,8.0476596 39.750622,6.1602204 39.366752,5.7555231 38.243136,4.5709448 37.32458,3.6665505 36.425413,2.8870162 34.373619,1.108211 32.589832,0.13168697 30.829874,0.13168697 c -5.078605,0 -9.016005,5.38336603 -9.016005,12.60733903 l 3.138037,0 c 0,-5.680063 2.863414,-9.4378475 5.877968,-9.4378475 z"
           id="Path-32"
           style="fill:url(#radialGradient16147);filter:url(#filter-2)" />
        <path
           d="m 83.557095,28.321996 c -0.675828,2.109017 -2.304949,2.84275 -3.401365,2.84275 -1.437791,0 -1.501693,-1.904 -1.501693,-2.904407 l 0,-9.842712 2.460221,0 0,-1.129491 -2.460221,0 0,-4.905221 -3.195092,0.451797 0,4.453424 -1.086331,0 0,1.129491 1.086331,0 0,1.844037 c -0.254536,0.802225 -1.995455,1.963963 -3.619583,1.963963 l -0.191705,0 c -0.415362,-2.872136 -1.661448,-5.098847 -5.016295,-5.098847 -2.396429,0 -3.954069,1.299034 -4.912585,3.070039 l 0,0 c -0.786995,1.005922 -2.897404,2.028808 -4.522065,2.028808 l -0.191706,0 c -0.415362,-2.872136 -1.661448,-5.098847 -5.016294,-5.098847 -4.792638,0 -6.23043,5.195661 -6.23043,8.971389 0,0.755207 0.05796,1.444104 0.16528,2.070754 -0.657103,2.082632 -2.388404,2.995823 -3.305599,2.995823 -1.40584,0 -1.437791,-2.097627 -1.437791,-2.775322 0,-1.678102 0.191705,-3.969356 0.191705,-5.486102 0,-2.484881 -0.511214,-5.776542 -4.377276,-5.776542 -1.086331,0 -2.588024,0.258169 -3.83411,2.613966 l 0,-8.906848 -3.195092,0.451797 0,17.595411 0,0 c -0.916493,1.511233 -2.701397,2.28364 -3.52373,2.28364 -1.37389,0 -1.437792,-2.065356 -1.437792,-2.904407 l 0,-11.548475 -3.195092,0 0,2.125288 C 21.201718,17.514034 19.859779,17.12678 18.83735,17.12678 c -4.345325,0 -6.070675,5.131118 -6.070675,9.100474 0,0.616644 0.0372,1.188618 0.106947,1.718105 -1.210494,2.119468 -3.6636847,3.12583 -5.739438,3.12583 -2.0768098,0 -3.7702085,-1.001426 -3.7702085,-5.674749 0,-3.171183 0.7029202,-7.076745 3.0033865,-7.076745 1.1182822,0 1.7573006,0.734379 1.7573006,1.769186 0,0.634237 -0.1917055,1.435378 -0.5431657,1.735806 0.2875583,0.433951 0.6709694,0.700998 1.1821841,0.700998 0.8307239,0 1.246086,-0.867903 1.246086,-1.969472 0,-2.603708 -1.4377915,-4.005705 -4.1216688,-4.005705 -4.824589,0 -5.91092029,5.574607 -5.91092029,9.279884 0,5.774891 3.16314109,7.777744 6.10262579,7.777744 2.4604619,0 5.4479613,-1.793211 7.1110423,-4.148704 l 0,0 c 0.893566,2.996262 3.051347,4.157924 5.039436,4.157924 2.012908,0 3.514601,-1.387661 4.15362,-3.065763 0.319509,1.613559 1.150233,3.065763 3.099239,3.065763 1.049,0 3.106914,-0.323419 4.482258,-2.726579 l 0,2.532952 3.195092,0 0,-10.32678 c 0.607067,-2.517152 1.565595,-3.517559 2.875583,-3.517559 1.086331,0 2.044859,0.709966 2.044859,3.485288 0,0.871322 -0.09585,4.808407 -0.09585,5.615186 0,2.613966 1.05438,4.937492 3.738257,4.937492 1.094757,0 3.438037,-0.386596 4.784573,-3.455093 l 0,0 c 1.098696,2.488465 3.232546,3.455093 5.225194,3.455093 3.4507,0 5.463608,-3.194848 5.463608,-8.487322 0,-0.451797 -0.03195,-0.903593 -0.03195,-1.323119 1.308911,-0.216726 2.689874,-0.709995 3.707391,-1.430934 -0.33316,1.245844 -0.471219,2.552189 -0.471219,3.722188 0,5.550645 3.13119,7.519187 5.974822,7.519187 3.450699,0 5.463607,-3.194848 5.463607,-8.487322 0,-0.451797 -0.03195,-0.903593 -0.03195,-1.323119 1.334598,-0.220979 2.836952,-0.554597 3.651534,-1.628118 l 0,0 0,6.759237 c 0,2.129898 0.70292,4.679322 3.770208,4.679322 1.157184,0 3.064183,-0.360089 4.509092,-3.143603 0.463103,1.637754 1.739211,3.143603 4.542148,3.143603 1.821202,0 4.952392,-1.129492 4.952392,-4.324339 0,-3.388475 -0.607067,-4.711593 -2.651926,-13.005288 l -3.227043,0.645423 c -0.319509,3.162577 -1.565595,6.357424 -2.683877,9.552272 -0.537195,0.298418 -0.98407,0.961734 -1.112844,1.836572 l 0,0 z m -64.52804,2.84275 c -1.853153,0 -2.907534,-1.484475 -2.907534,-5.16339 0,-3.00122 1.054381,-7.099661 3.80216,-7.099661 0.958528,0 1.597546,0.709966 1.885104,1.387661 l 0,7.35783 c 0,1.968543 -1.469742,3.51756 -2.77973,3.51756 z m 33.279166,0 c -1.437792,0 -3.099239,-1.000407 -3.099239,-5.195661 0,-3.162577 0.958527,-7.06739 3.610454,-7.06739 0.958527,0 1.789251,0.516339 2.300466,2.000813 -0.830724,0.03227 -1.278037,0.387255 -1.278037,1.387661 0,1.097221 0.511215,1.549017 1.72535,1.61356 0.03195,0.258169 0.03195,0.516339 0.03195,0.774508 0,4.098441 -1.054381,6.486509 -3.290945,6.486509 z m 14.64265,0 c -1.437791,0 -3.099239,-1.000407 -3.099239,-5.195661 0,-3.162577 0.958528,-7.06739 3.610454,-7.06739 0.958528,0 1.789252,0.516339 2.300466,2.000813 -0.830724,0.03227 -1.278037,0.387255 -1.278037,1.387661 0,1.097221 0.511215,1.549017 1.72535,1.61356 0.03195,0.258169 0.03195,0.516339 0.03195,0.774508 0,4.098441 -1.05438,6.486509 -3.290945,6.486509 z m 22.895117,-2.226712 c 0,1.581288 -0.894626,2.258983 -2.236564,2.258983 -1.405841,0 -2.268516,-0.871322 -2.588025,-2.388068 0.255607,0.322712 0.543166,0.451797 0.862675,0.451797 0.511215,0 1.022429,-0.451797 1.022429,-1.258577 0,-0.709966 -0.319509,-1.161762 -0.70292,-1.419932 0.639018,-2.323525 1.597546,-4.453423 1.853153,-6.841491 1.182184,5.615186 1.789252,6.551051 1.789252,9.197288 z"
           id="cahoots-7"
           style="fill:url(#radialGradient16149);filter:url(#filter-4)" />
      </g>
    </g>
  </g>
</svg>
