<?xml version="1.0" encoding="UTF-8" standalone="no"?>
<!-- Created with Inkscape (http://www.inkscape.org/) -->
<svg id="svg14001" xmlns:rdf="http://www.w3.org/1999/02/22-rdf-syntax-ns#" xmlns="http://www.w3.org/2000/svg" height="60" width="167.1" version="1.1" xmlns:cc="http://creativecommons.org/ns#" xmlns:xlink="http://www.w3.org/1999/xlink" xmlns:dc="http://purl.org/dc/elements/1.1/">
 <defs id="defs14003">
  <radialGradient id="radialGradient16147" gradientUnits="userSpaceOnUse" cy="-30.426" cx="24.381" gradientTransform="scale(2.2337959,0.44766848)" r="72.281">
   <stop id="stop12987" stop-color="#ffffff" offset="0"/>
   <stop id="stop12989" stop-color="#ff3264" offset="1"/>
  </radialGradient>
  <radialGradient id="radialGradient16149" gradientUnits="userSpaceOnUse" cy="-40.984" cx="29.521" gradientTransform="scale(2.0231481,0.4942792)" r="92.189">
   <stop id="stop13005" stop-color="#ffffff" offset="0"/>
   <stop id="stop13007" stop-color="#000000" offset="1"/>
  </radialGradient>
 </defs>
 <metadata id="metadata14006">
  <rdf:RDF>
   <cc:Work rdf:about="">
    <dc:format>image/svg+xml</dc:format>
    <dc:type rdf:resource="http://purl.org/dc/dcmitype/StillImage"/>
    <dc:title/>
   </cc:Work>
  </rdf:RDF>
 </metadata>
 <g id="layer1" transform="matrix(0.98898632,0,0,0.98898632,-287.32164,-496.49892)">
  <g id="Page-1" fill="none" transform="matrix(1.8117655,0,0,1.8117655,286.93917,501.78951)">
   <g id="Path-32-+-cahoots-9" transform="translate(2,0)">
    <path id="Path-32" filter="url(#filter-2)" fill="url(#radialGradient16147)" d="m30.83,3.3012c0.80688,0,2.0236,0.66608,3.5517,1.9909,0.80752,0.70008,1.6601,1.5396,2.7192,2.6561,0.36654,0.38643,2.1295,2.283,2.59,2.7629,0.97421,1.0152,1.6868,1.6807,2.3324,2.1366,1.8335,1.295,3.718,0.98779,6.4061-0.32883,0.2563-0.12554,0.49584-0.24702,0.88191-0.44572,1.8586-0.95655,2.5587-1.2391,3.1367-1.2268,0.6706,0.01421,1.0782,0.16644,1.8259,0.62787,0.07673,0.04735,0.37933,0.23689,0.4518,0.28176,1.5323,0.94868,2.7974,1.3778,4.8197,1.3778,1.1851,0,2.478-0.37963,4.1435-1.1196,0.62531-0.2778,1.2883-0.59866,2.1686-1.0434,0.23586-0.11915,1.8047-0.92015,2.2747-1.156,4.0381-2.0266,6.7513-3.0667,9.3863-2.9874,4.9531,0.149,7.6126,1.1219,8.8346,6.2312l3.0503-0.74426c-1.564-6.5327-5.521-8.6576-11.784-8.6576-3.407,0-6.448,1.0923-10.885,3.319-5.727,2.8743-5.983,2.9879-7.191,2.9879-1.3822,0-2.1051-0.24518-3.1797-0.91052-0.062-0.0387-0.367-0.2298-0.455-0.2841-1.179-0.7278-2.08-1.0642-3.396-1.0921-1.328-0.0282-2.214,0.3294-4.628,1.5716-0.368,0.1899-0.593,0.3038-0.826,0.4179-1.742,0.8529-2.647,1.0009-3.238,0.5829-0.437-0.308-1.035-0.8662-1.878-1.7447-0.439-0.4576-2.193-2.3451-2.577-2.7498-1.124-1.1846-2.042-2.0889-2.942-2.8685-2.051-1.7788-3.835-2.7553-5.595-2.7553-5.0786,0-9.016,5.3834-9.016,12.607h3.138c0-5.6801,2.8634-9.4378,5.878-9.4378z"/>
    <path id="cahoots-7" filter="url(#filter-4)" fill="url(#radialGradient16149)" d="m83.557,28.322c-0.67583,2.109-2.3049,2.8428-3.4014,2.8428-1.4378,0-1.5017-1.904-1.5017-2.9044v-9.8427h2.4602v-1.1295h-2.4602v-4.9052l-3.1951,0.4518v4.4534h-1.0863v1.1295h1.0863v1.844c-0.25454,0.80222-1.9955,1.964-3.6196,1.964h-0.1917c-0.41536-2.8721-1.6614-5.0988-5.0163-5.0988-2.3964,0-3.9541,1.299-4.9126,3.07-0.787,1.0059-2.8974,2.0288-4.5221,2.0288h-0.19171c-0.41536-2.8721-1.6614-5.0988-5.0163-5.0988-4.7926,0-6.2304,5.1957-6.2304,8.9714,0,0.75521,0.05796,1.4441,0.16528,2.0708-0.6571,2.0826-2.3884,2.9958-3.3056,2.9958-1.4058,0-1.4378-2.0976-1.4378-2.7753,0-1.6781,0.1917-3.9694,0.1917-5.4861,0-2.4849-0.51121-5.7765-4.3773-5.7765-1.0863,0-2.588,0.25817-3.8341,2.614v-8.9068l-3.1951,0.4518v17.595c-0.91649,1.5112-2.7014,2.2836-3.5237,2.2836-1.3739,0-1.4378-2.0654-1.4378-2.9044v-11.548h-3.1951v2.1253c-0.606-1.325-1.948-1.712-2.971-1.712-4.3453,0-6.0707,5.1311-6.0707,9.1005,0,0.61664,0.0372,1.1886,0.10695,1.7181-1.2105,2.1195-3.6637,3.1258-5.7394,3.1258-2.0768,0-3.7702-1.0014-3.7702-5.6747,0-3.1712,0.70292-7.0767,3.0034-7.0767,1.1183,0,1.7573,0.73438,1.7573,1.7692,0,0.63424-0.19171,1.4354-0.54317,1.7358,0.28756,0.43395,0.67097,0.701,1.1822,0.701,0.83072,0,1.2461-0.8679,1.2461-1.9695,0-2.6037-1.4378-4.0057-4.1217-4.0057-4.8246,0-5.9109,5.5746-5.9109,9.2799,0,5.7749,3.1631,7.7777,6.1026,7.7777,2.4605,0,5.448-1.7932,7.111-4.1487,0.89357,2.9963,3.0513,4.1579,5.0394,4.1579,2.0129,0,3.5146-1.3877,4.1536-3.0658,0.31951,1.6136,1.1502,3.0658,3.0992,3.0658,1.049,0,3.1069-0.32342,4.4823-2.7266v2.533h3.1951v-10.327c0.60707-2.5172,1.5656-3.5176,2.8756-3.5176,1.0863,0,2.0449,0.70997,2.0449,3.4853,0,0.87132-0.09585,4.8084-0.09585,5.6152,0,2.614,1.0544,4.9375,3.7383,4.9375,1.0948,0,3.438-0.3866,4.7846-3.4551,1.0987,2.4885,3.2325,3.4551,5.2252,3.4551,3.4507,0,5.4636-3.1948,5.4636-8.4873,0-0.4518-0.03195-0.90359-0.03195-1.3231,1.3089-0.21673,2.6899-0.71,3.7074-1.4309-0.33316,1.2458-0.47122,2.5522-0.47122,3.7222,0,5.5506,3.1312,7.5192,5.9748,7.5192,3.4507,0,5.4636-3.1948,5.4636-8.4873,0-0.4518-0.03195-0.90359-0.03195-1.3231,1.3346-0.22098,2.837-0.5546,3.6515-1.6281v6.7592c0,2.1299,0.70292,4.6793,3.7702,4.6793,1.1572,0,3.0642-0.36009,4.5091-3.1436,0.4631,1.6378,1.7392,3.1436,4.5421,3.1436,1.8212,0,4.9524-1.1295,4.9524-4.3243,0-3.3885-0.60707-4.7116-2.6519-13.005l-3.227,0.64542c-0.31951,3.1626-1.5656,6.3574-2.6839,9.5523-0.5372,0.29842-0.98407,0.96173-1.1128,1.8366zm-64.528,2.8428c-1.8532,0-2.9075-1.4845-2.9075-5.1634,0-3.0012,1.0544-7.0997,3.8022-7.0997,0.95853,0,1.5975,0.70997,1.8851,1.3877v7.3578c0,1.9685-1.4697,3.5176-2.7797,3.5176zm33.279,0c-1.4378,0-3.0992-1.0004-3.0992-5.1957,0-3.1626,0.95853-7.0674,3.6105-7.0674,0.95853,0,1.7893,0.51634,2.3005,2.0008-0.83072,0.03227-1.278,0.38726-1.278,1.3877,0,1.0972,0.51122,1.549,1.7254,1.6136,0.03195,0.25817,0.03195,0.51634,0.03195,0.77451,0,4.0984-1.0544,6.4865-3.2909,6.4865zm14.643,0c-1.4378,0-3.0992-1.0004-3.0992-5.1957,0-3.1626,0.95853-7.0674,3.6105-7.0674,0.95853,0,1.7893,0.51634,2.3005,2.0008-0.83072,0.03227-1.278,0.38726-1.278,1.3877,0,1.0972,0.51122,1.549,1.7254,1.6136,0.03195,0.25817,0.03195,0.51634,0.03195,0.77451,0,4.0984-1.0544,6.4865-3.2909,6.4865zm22.895-2.2267c0,1.5813-0.89463,2.259-2.2366,2.259-1.4058,0-2.2685-0.87132-2.588-2.3881,0.25561,0.32271,0.54317,0.4518,0.86268,0.4518,0.51122,0,1.0224-0.4518,1.0224-1.2586,0-0.70997-0.31951-1.1618-0.70292-1.4199,0.63902-2.3235,1.5975-4.4534,1.8532-6.8415,1.1822,5.6152,1.7893,6.5511,1.7893,9.1973z"/>
   </g>
  </g>
 </g>
</svg>
